<?xml version="1.0" encoding="UTF-8" standalone="no"?>
<!-- Created with Inkscape (http://www.inkscape.org/) -->

<svg
   width="1920"
   height="1080"
   viewBox="0 0 1920 1080"
   version="1.1"
   id="svg1"
   xml:space="preserve"
   sodipodi:docname="godot logo.svg"
   inkscape:version="1.4.3 (0d15f75042, 2025-12-25)"
   inkscape:export-filename="godot logo.png"
   inkscape:export-xdpi="96"
   inkscape:export-ydpi="96"
   xmlns:inkscape="http://www.inkscape.org/namespaces/inkscape"
   xmlns:sodipodi="http://sodipodi.sourceforge.net/DTD/sodipodi-0.dtd"
   xmlns:xlink="http://www.w3.org/1999/xlink"
   xmlns="http://www.w3.org/2000/svg"
   xmlns:svg="http://www.w3.org/2000/svg"><sodipodi:namedview
     id="namedview1"
     pagecolor="#505050"
     bordercolor="#eeeeee"
     borderopacity="1"
     inkscape:showpageshadow="0"
     inkscape:pageopacity="0"
     inkscape:pagecheckerboard="0"
     inkscape:deskcolor="#505050"
     inkscape:document-units="px"
     inkscape:zoom="0.44179687"
     inkscape:cx="942.74096"
     inkscape:cy="465.1459"
     inkscape:window-width="1920"
     inkscape:window-height="1048"
     inkscape:window-x="0"
     inkscape:window-y="0"
     inkscape:window-maximized="1"
     inkscape:current-layer="layer1" /><defs
     id="defs1"><linearGradient
       id="linearGradient44"
       inkscape:collect="always"><stop
         style="stop-color:#f83805;stop-opacity:1;"
         offset="0"
         id="stop44" /><stop
         style="stop-color:#030000;stop-opacity:0.89521581;"
         offset="1"
         id="stop45" /></linearGradient><linearGradient
       id="linearGradient41"
       inkscape:collect="always"><stop
         style="stop-color:#d93b2d;stop-opacity:1;"
         offset="0"
         id="stop41" /><stop
         style="stop-color:#d93b2d;stop-opacity:0;"
         offset="1"
         id="stop42" /></linearGradient><linearGradient
       id="linearGradient39"
       inkscape:collect="always"><stop
         style="stop-color:#55e2fe;stop-opacity:1;"
         offset="0"
         id="stop39" /><stop
         style="stop-color:#55e2fe;stop-opacity:0;"
         offset="1"
         id="stop40" /></linearGradient><linearGradient
       id="linearGradient37"
       inkscape:collect="always"><stop
         style="stop-color:#55e2fe;stop-opacity:1;"
         offset="0"
         id="stop37" /><stop
         style="stop-color:#55e2fe;stop-opacity:0;"
         offset="1"
         id="stop38" /></linearGradient><linearGradient
       id="linearGradient2"
       inkscape:collect="always"><stop
         style="stop-color:#7898b7;stop-opacity:1;"
         offset="0"
         id="stop4" /><stop
         style="stop-color:#acb7bf;stop-opacity:1;"
         offset="1"
         id="stop3" /></linearGradient><linearGradient
       inkscape:collect="always"
       xlink:href="#linearGradient2"
       id="linearGradient4"
       x1="296.03888"
       y1="733.01202"
       x2="709.8075"
       y2="704.07855"
       gradientUnits="userSpaceOnUse"
       spreadMethod="pad" /><linearGradient
       inkscape:collect="always"
       xlink:href="#linearGradient37"
       id="linearGradient38"
       x1="734.20015"
       y1="749.38427"
       x2="1600.5921"
       y2="749.38427"
       gradientUnits="userSpaceOnUse" /><linearGradient
       inkscape:collect="always"
       xlink:href="#linearGradient39"
       id="linearGradient40"
       x1="582.65544"
       y1="262.7812"
       x2="1195.7081"
       y2="262.7812"
       gradientUnits="userSpaceOnUse" /><linearGradient
       inkscape:collect="always"
       xlink:href="#linearGradient41"
       id="linearGradient42"
       x1="344.77038"
       y1="488.57353"
       x2="725.26827"
       y2="488.57353"
       gradientUnits="userSpaceOnUse" /><linearGradient
       inkscape:collect="always"
       xlink:href="#linearGradient44"
       id="linearGradient45"
       x1="910.26662"
       y1="569.76839"
       x2="1603.144"
       y2="569.76839"
       gradientUnits="userSpaceOnUse" /><linearGradient
       inkscape:collect="always"
       xlink:href="#linearGradient44"
       id="linearGradient3"
       gradientUnits="userSpaceOnUse"
       x1="910.26662"
       y1="569.76839"
       x2="1603.144"
       y2="569.76839"
       gradientTransform="translate(-606.61363,-905.39348)" /><linearGradient
       inkscape:collect="always"
       xlink:href="#linearGradient39"
       id="linearGradient5"
       gradientUnits="userSpaceOnUse"
       x1="582.65544"
       y1="262.7812"
       x2="1195.7081"
       y2="262.7812"
       gradientTransform="translate(-606.61363,-905.39348)" /><linearGradient
       inkscape:collect="always"
       xlink:href="#linearGradient2"
       id="linearGradient6"
       gradientUnits="userSpaceOnUse"
       x1="296.03888"
       y1="733.01202"
       x2="709.8075"
       y2="704.07855"
       spreadMethod="pad"
       gradientTransform="translate(-351.61071,-1031.5461)" /></defs><g
     inkscape:label="Layer 1"
     inkscape:groupmode="layer"
     id="layer1"><rect
       style="fill:#000000;stroke-width:0;stroke-linecap:round"
       id="rect1"
       width="1920"
       height="1080"
       x="0"
       y="0"
       ry="0" /><path
       style="fill:url(#linearGradient42);fill-opacity:1;stroke-width:7.5;stroke-linecap:round"
       d="m 344.77038,89.318744 c 14.291,62.523116 28.582,748.491076 28.582,748.491076 l 326.90664,55.37762 25.00925,-809.227819 z"
       id="path1" /><path
       style="fill:url(#linearGradient38);fill-opacity:1;stroke-width:7.5;stroke-linecap:round"
       d="m 818.15978,509.11683 -83.95963,468.03023 793.15055,12.50464 73.2414,-421.58449 z"
       id="path2" /><path
       style="fill:#000000"
       d="m -174.57555,294.18334 c -43.75103,-5.202 -66.41812,-17.42568 -71.95605,-38.80373 -1.27755,-4.93173 -2.18625,-16.54563 -1.29395,-16.53768 3.05276,0.0272 30.19376,3.154 30.83904,3.55281 0.50103,0.30965 0.91785,3.79894 0.92627,7.75398 0.0216,10.16655 -1.06567,9.57973 20.91606,11.28829 21.91718,1.70354 21.49667,1.81316 22.49802,-5.86475 1.39285,-10.67971 -0.22259,-9.73255 16.59956,-9.73255 16.73438,0 14.99419,-1.07491 16.54189,10.21777 0.97431,7.10902 0.77663,7.0604 22.03019,5.41893 21.685744,-1.67485 21.390144,-1.52193 21.414294,-11.07783 0.008,-3.33238 0.37581,-6.62677 0.81643,-7.32087 0.61735,-0.97251 22.5228,-4.01025 30.41825,-4.21825 2.88133,-0.0759 -0.59979,19.41078 -4.5964,25.7298 -13.53411,21.39873 -61.216264,34.81823 -105.153604,29.59408 z m -24.34219,-39.33446 c -10.93836,-0.80728 -11.12133,-0.97373 -11.1425,-10.13673 -0.0201,-8.71048 0.30566,-8.53855 -20.09913,-10.60697 -17.41618,-1.76547 -17.41618,-1.76547 -17.68206,-29.55263 -0.26589,-27.78715 -0.26589,-27.78715 -5.11181,-34.5 -8.4465,-11.70058 -8.43685,-11.23629 -0.45265,-21.76287 12.26232,-16.16697 10.97564,-15.81972 25.14041,-6.78492 5.31007,3.38695 5.31007,3.38695 10.5,-1.00367 2.85446,-2.41484 7.10403,-5.5832 9.44349,-7.0408 4.25357,-2.65017 4.25357,-2.65017 3.5984,-14.12129 -0.74105,-12.97496 -0.40466,-13.31535 18.64804,-18.87016 9.96639,-2.905702 8.93999,-3.516592 15.18239,9.03608 6.17895,12.42508 23.56618,12.32832 29.68637,-0.16521 6.24862,-12.755682 4.91009,-12.120582 17.13785,-8.13157 19.0976,6.23013 17.35195,4.36639 16.60385,17.72711 -0.64927,11.59553 -0.64927,11.59553 4.90192,15.28131 3.053164,2.02718 7.299344,5.26512 9.435954,7.19543 3.88476,3.50964 3.88476,3.50964 9.21822,0.10773 13.25221,-8.45285 12.98991,-8.44045 19.10508,-0.90352 14.65799,18.06596 14.40044,17.04835 6.97837,27.57124 -5.75,8.15227 -5.75,8.15227 -6.25,36.15227 -0.5,28 -0.5,28 -17.88379,29.73859 -20.025764,2.00282 -20.111444,2.04383 -20.129864,9.63385 -0.0264,10.86266 0.70774,10.4349 -20.12425,11.72611 -10.63789,0.65936 -10.63789,0.65936 -11.84272,-6.7196 -1.65248,-10.12063 -1.09989,-9.87895 -22.58807,-9.87895 -19.98727,0 -19.85302,-0.0403 -20.84182,6.25 -0.32422,2.0625 -0.83488,5.325 -1.1348,7.25 -0.62103,3.98595 -0.49621,3.97052 -20.29688,2.50917 z m 6.53582,-39.59664 c 14.61322,-11.62673 8.20404,-34.06016 -10.06323,-35.22333 -21.60765,-1.37588 -29.75474,26.53471 -10.75935,36.85975 5.76289,3.13246 15.82237,2.34189 20.82258,-1.63642 z m 95.751874,0.19684 c 15.43719,-11.77452 7.88465,-35.60937 -11.283534,-35.60937 -21.19433,0 -27.81093,28.74884 -8.66197,37.63586 5.18881,2.40812 15.50569,1.35991 19.945504,-2.02649 z"
       id="path4" /><path
       d="m 558.36322,294.59635 -68.05857,-167.0519 c -8.63184,5.11885 -20.21914,4.95167 -29.07865,-2.85699 -15.77571,-13.90451 -14.00643,-13.63753 -26.20664,-3.96065 -23.32309,18.49922 -23.59776,19.16397 -15.22518,36.76857 7.40217,15.56419 7.40311,15.56348 2.99417,21.65223 -2.42491,3.34883 -6.53471,10.15536 -9.13328,15.12539 -4.72465,9.0364 -4.72452,9.03674 -14.01778,7.33702 -24.79003,-4.53406 -23.19936,-5.74419 -31.08374,23.6538 -5.13366,19.14149 -5.40981,18.50013 12.94545,29.97357 10.53078,6.58253 10.53011,6.58279 26.62555,45.03248 16.09544,38.4497 16.09492,38.4501 41.28756,31.04593 29.51567,-8.67473 28.96676,-8.72884 33.92435,3.35982 5.21524,12.71668 5.56367,12.84431 21.21542,7.77518 28.33291,-9.17613 28.16791,-9.08488 26.77477,-14.97339 -0.67279,-2.84383 -1.80989,-7.66488 -2.52677,-10.71347 -2.18641,-9.29769 -2.35013,-9.16571 25.41492,-20.47747 1.45461,-0.59262 2.8353,-1.15526 4.14842,-1.69012 z"
       id="path6"
       style="stroke-width:1.5" /><path
       d="m 561.74579,397.61773 -14.18326,-72.84099 c -1.10538,0.22135 -2.27493,0.45214 -3.51524,0.69364 -24.76806,4.82273 -22.66122,2.96487 -21.65023,19.08844 0.72684,11.59163 1.31465,11.31041 -31.44346,15.08561 -32.85459,3.78632 -31.0851,4.34034 -34.03154,-10.62217 -1.14565,-5.8209 -2.76013,-10.84164 -3.58659,-11.15391 -1.06441,-0.4022 -41.92301,2.77542 -46.42553,3.61057 -1.31607,0.24403 3.35331,17.08505 6.64814,23.98003 14.28261,29.88827 51.15914,41.38619 117.06724,36.50241 10.43845,-0.77348 20.88052,-2.25529 31.12051,-4.34343 z"
       id="path5"
       style="stroke-width:1.5" /><path
       d="m 453.92799,242.37937 c -29.48726,6.34674 -32.29891,47.39982 -2.33749,56.85122 9.38302,2.95992 23.96743,-1.0855 30.18895,-8.37646 18.18249,-21.30804 2.31524,-52.5025 -24.91401,-48.97808 -1.00652,0.13027 -1.98625,0.29857 -2.93744,0.50335 z"
       style="fill:#d93b2d;stroke-width:7.5;stroke-linecap:round;fill-opacity:1"
       id="path7" /><path
       d="m 555.23633,602.08984 c -4.71301,-0.0577 -6.12434,4.05522 -11.98242,16.01368 -4.95266,10.11017 -14.82537,14.80985 -24.32227,14.0664 v 180.1836 h 1.16602 c 32.23225,0 31.40216,-0.36259 33.88086,14.81835 1.80725,11.06844 1.80685,11.06717 17.76367,10.07813 31.24799,-1.9368 30.1479,-1.29196 30.1875,-17.58594 0.0275,-11.38503 0.15472,-11.44889 30.19336,-14.45312 26.07568,-2.60788 26.07617,-2.60741 26.82617,-44.60742 0.75,-42 0.75001,-42.00011 9.375,-54.22852 11.13311,-15.78433 11.52019,-14.25849 -10.4668,-41.35742 -9.17276,-11.3054 -8.77989,-11.32381 -28.6582,1.35547 -8.00019,5.10287 -8.00099,5.1043 -13.82813,-0.16016 -3.2049,-2.89546 -9.57454,-7.7522 -14.15429,-10.79297 -8.32677,-5.52868 -8.32742,-5.52855 -7.35352,-22.92187 1.12217,-20.04106 3.7421,-17.24855 -24.9043,-26.59375 -6.87811,-2.24382 -10.89484,-3.77983 -13.72265,-3.81446 z m 37.95703,121.76368 c 28.75227,0 40.07961,35.75228 16.92383,53.41406 -6.65973,5.0796 -22.13475,6.65124 -29.91797,3.03906 -28.72343,-13.33053 -18.79734,-56.45312 12.99414,-56.45312 z"
       style="stroke-width:1.5"
       id="path8" /><path
       d="m 448.41602,724.07031 c -30.1567,0.59396 -40.76285,40.35385 -13.16016,55.35742 8.64433,4.69868 23.73406,3.51238 31.23437,-2.45507 21.91983,-17.44011 12.30326,-51.08923 -15.09765,-52.83399 -1.01284,-0.0644 -2.00377,-0.0875 -2.97656,-0.0684 z"
       style="stroke-width:1.5"
       id="path3" /><path
       d="m 941.10523,705.14308 c -4.46519,1.51087 -4.42948,5.85936 -5.98247,19.08471 -2.43368,20.72567 -26.98474,29.52422 -41.91798,15.02379 -15.08661,-14.64933 -13.33128,-14.29454 -25.98411,-5.21746 -24.1883,17.35262 -24.49569,18.00058 -16.9821,35.98856 6.64277,15.90315 6.64469,15.90525 1.94718,21.77422 -2.58364,3.22797 -7.01797,9.82556 -9.85327,14.66444 -5.15505,8.79799 -5.15494,8.79832 -14.35538,6.65228 -24.54246,-5.72464 -22.89526,-6.85661 -32.18859,22.12681 -6.05104,18.87159 -6.29496,18.22039 11.48547,30.56591 10.20097,7.08288 10.20029,7.08312 24.42223,46.26446 14.22192,39.18138 14.22138,39.18174 39.74184,33.00144 29.89978,-7.24082 29.35316,-7.32411 33.72186,4.98964 4.5957,12.95345 4.93854,13.10049 20.81662,8.7923 28.74258,-7.79872 28.57336,-7.71552 27.4659,-13.66439 -0.53486,-2.87296 -1.43806,-7.74325 -2.00707,-10.82287 -1.73532,-9.39234 -1.90522,-9.26843 26.37319,-19.22765 30.40195,-10.7071 29.49945,-10.77366 36.88025,2.72183 5.3814,9.83956 5.3824,9.83784 20.1046,3.60433 28.8301,-12.20697 28.0028,-11.23598 22.6274,-26.61787 -3.7559,-10.74768 -3.6532,-10.84744 23.6819,-23.65949 23.7286,-11.12176 23.7274,-11.12084 10.483,-50.98496 -13.2444,-39.86412 -13.2445,-39.86423 -9.1714,-54.26332 5.2576,-18.58627 6.1283,-17.27624 -23.612,-35.53258 -12.4074,-7.61636 -12.0426,-7.7633 -26.5802,10.79925 -5.8509,7.47065 -5.8487,7.47038 -13.0937,4.44057 -3.9847,-1.66641 -11.6079,-4.13081 -16.9377,-5.47758 -9.69045,-2.44866 -9.68824,-2.44936 -14.54746,-19.17848 -5.59892,-19.27578 -2.20347,-17.50991 -32.3275,-16.80851 -7.23289,0.16841 -11.53139,0.054 -14.21051,0.96062 z"
       id="path12"
       style="stroke-width:1.5" /><path
       d="m 1168.6406,717.70015 c -19.5779,0.25763 -36.8883,20.66243 -26.7714,42.14941 3.6551,7.7631 16.5378,16.4808 24.9052,16.85449 29.0938,1.2993 43.3272,-33.39824 21.2666,-51.83789 -6.0981,-5.09724 -12.8744,-7.2519 -19.4004,-7.16601 z"
       style="fill:#d93b2d;stroke-width:1.5"
       id="path21" /><path
       d="M 443.38784,824.89136 387.9425,794.29038 v 30.60098 H 350.97894 V 794.29038 L 295.5336,824.89136 V 612.80535 h 36.96356 v 154.51981 l 18.48178,-10.30132 V 612.80535 h 36.96356 v 144.21849 l 18.48178,10.30132 V 612.80535 h 36.96356 z M 498.22708,612.50237 V 824.58838 H 461.26352 V 612.50237 h 36.96356 z m 106.04286,-0.30298 v 36.96356 H 576.39578 V 824.2854 H 539.43222 V 649.16295 h -27.57118 v -36.96356 h 92.4089 z M 654.8674,735.20928 V 824.2854 H 617.90384 V 612.19939 h 36.96356 v 86.04632 l 55.44534,-30.90396 V 824.2854 h -36.96356 v -99.07446 z"
       id="text26"
       style="font-size:302.98px;font-family:Schwachsinn;-inkscape-font-specification:'Schwachsinn, Normal';text-align:center;text-anchor:middle;fill:url(#linearGradient4);stroke-width:126.243;stroke-linecap:round"
       transform="rotate(-14.999999)"
       aria-label="With" /><path
       d="m 1102.4385,607.89546 h -90.378 c -2.5574,3.14282 -5.4838,6.71254 -8.8359,10.80175 -26.42512,32.23594 -26.42297,32.23724 -8.07713,51.02344 21.49403,22.0099 21.28223,21.49693 12.92573,31.54102 -8.79055,10.56587 -8.73909,10.93394 3.0734,22.38574 21.3826,20.73007 21.2261,20.62771 25.7752,16.6377 2.1971,-1.92698 5.9222,-5.19207 8.2794,-7.2539 7.1893,-6.28827 6.9967,-6.36934 30,12.8584 24.7306,20.67157 24.3254,19.86212 16.4912,33.09959 -5.712,9.65143 -5.7114,9.65316 7.166,19.12793 25.2176,18.55427 23.9646,18.34201 34.4443,5.86524 7.3235,-8.71704 7.4602,-8.68629 32.4346,8.27344 21.6794,14.72224 21.6781,14.72261 49.1895,-17.02149 27.5113,-31.74409 27.5135,-31.74184 41.9736,-35.59278 18.665,-4.9707 17.9796,-3.55037 18.4893,-38.44334 0.2126,-14.55693 0.5291,-14.32343 -22.8544,-17.34376 -9.411,-1.21547 -9.4142,-1.21481 -10.5088,-8.9912 -0.6022,-4.27699 -2.3738,-12.08825 -3.9376,-17.3584 -0.3319,-1.11871 -0.6243,-2.10403 -0.8643,-2.99707 z m -44.2881,17.53125 c 6.2805,-0.0228 12.7941,2.03467 18.6738,6.75587 0.7588,0.6092 1.5055,1.26385 2.2413,1.96288 19.9047,18.91177 5.6994,50.89448 -22.3037,50.21778 -9.5819,-0.23156 -21.922,-9.00039 -25.5411,-18.14942 -8.6671,-21.91056 8.0884,-40.71858 26.9297,-40.78711 z m 110.4902,92.27344 c 6.526,-0.0859 13.3023,2.06877 19.4004,7.16601 22.0606,18.43965 7.8272,53.13719 -21.2666,51.83789 -8.3674,-0.37369 -21.2501,-9.09139 -24.9052,-16.85449 -10.1169,-21.48698 7.1935,-41.89178 26.7714,-42.14941 z"
       id="path22"
       style="stroke-width:1.5" /><path
       d="m 1412.9086,793.59692 -36.0584,-0.72828 -16.5975,40.73454 -39.8323,17.82806 32.8668,-25.48641 -31.0878,-34.17999 -139.6691,-2.82092 c 0.1941,0.50321 0.3927,1.01939 0.5976,1.5509 4.4658,11.58806 4.465,11.58787 -5.7608,51.99672 -10.2258,40.40886 -10.2236,40.40958 14.3657,49.62151 28.8087,10.79269 28.3997,10.41903 25.1023,23.06186 -3.4687,13.29962 -3.2667,13.61098 12.292,18.95921 28.1643,9.68139 27.9776,9.65524 30.4006,4.11047 1.1701,-2.67782 3.1568,-7.21529 4.4148,-10.08329 3.8365,-8.74694 3.6263,-8.73976 32.6193,-1.10691 31.1702,8.20602 30.4607,7.64428 28.9928,22.95606 -1.0702,11.16382 -1.0692,11.1658 14.6136,14.2718 30.7115,6.08244 29.485,6.42236 33.671,-9.3248 2.9261,-11.00262 3.0641,-11.03132 32.8779,-6.289 25.8804,4.11666 25.8817,4.11748 37.2998,-36.30764 11.4181,-40.42512 11.4181,-40.42522 22.8721,-50.05485 14.7848,-12.42983 14.7692,-10.85408 0.4059,-42.65775 -5.9922,-13.26814 -5.6071,-13.1878 -28.0586,-5.98718 -9.0356,2.89798 -9.0364,2.89824 -13.3313,-3.6763 -2.3622,-3.61599 -7.2847,-9.93415 -10.9393,-14.04066 -0.7758,-0.87168 -1.4604,-1.64073 -2.0571,-2.34715 z"
       id="path17"
       sodipodi:nodetypes="ccccccccssssssssscsssssssc"
       style="stroke-width:1.5" /><path
       d="m 1249.7219,823.43176 c -29.3143,-7.10323 -49.6958,28.64467 -26.8226,50.18119 7.1633,6.74463 22.0597,9.4396 30.8321,5.57827 25.6376,-11.28487 24.9057,-46.27322 -1.1482,-54.93649 -0.963,-0.32022 -1.9156,-0.59382 -2.8613,-0.82294 z"
       id="path18"
       style="fill:#d93b2d;fill-opacity:1;stroke-width:1.5" /><path
       d="m 1389.7801,860.07997 c -30.7441,-8.09383 -51.3183,31.08366 -26.935,51.28765 6.6071,5.47468 21.9728,7.89274 29.7063,4.67601 26.8893,-11.18457 25.0334,-48.64365 -2.7713,-55.96366 z"
       id="path19"
       style="fill:#ffffff;fill-opacity:1;stroke-width:1.5" /><path
       d="m 1168.6406,717.70015 c -19.5779,0.25763 -36.8883,20.66243 -26.7714,42.14941 3.6551,7.7631 16.5378,16.4808 24.9052,16.85449 29.0938,1.2993 43.3272,-33.39824 21.2666,-51.83789 -6.0981,-5.09724 -12.8744,-7.25196 -19.4004,-7.16601 z"
       style="fill:#55e2fe;stroke-width:7.5;stroke-linecap:round;fill-opacity:1"
       id="path24" /><path
       d="M 776.90209,402.58295 H 728.2408 V 199.16281 l -23.93178,13.56134 v 189.8588 H 655.64774 V 212.72415 L 631.31709,199.16281 V 402.58295 H 582.65581 V 123.37884 l 72.99193,40.28516 v -40.28516 h 48.66128 V 163.664 l 72.59307,-40.28516 z m 139.6023,-279.60297 v 279.2041 H 867.8431 v -40.28516 l -72.59307,40.28516 V 263.37976 l 72.59307,-40.68403 v -51.05447 h -24.33064 v 24.33065 H 795.25003 V 122.97998 H 916.50439 Z M 867.8431,306.45696 v -13.56134 -21.13974 l -24.33064,13.56134 v 34.30222 l 24.33064,-13.16248 z m 186.2689,95.72712 H 932.45876 V 195.97191 l 72.99194,40.28516 V 122.97998 h 48.6613 z m -48.6613,-48.26242 v -68.60444 l -24.33066,-13.56134 v 82.16578 h 24.33066 z m 190.2575,-27.12269 v 75.78398 H 1074.0549 V 123.37884 h 121.6533 v 133.61911 l -72.992,40.68402 v 56.23969 h 24.3307 v -27.12269 h 48.6613 z m -48.6613,-91.73849 v -63.41922 h -24.3307 v 76.98056 l 24.3307,-13.56134 z"
       id="text24"
       style="font-size:398.863px;font-family:Schwachsinn;-inkscape-font-specification:'Schwachsinn, Normal';text-align:center;text-anchor:middle;fill:url(#linearGradient40);stroke-width:166.193;stroke-linecap:round"
       aria-label="Made" /><path
       d="M 1033.229,711.13489 H 910.26645 V 427.99749 H 1033.229 v 61.48126 h -49.34683 v -12.13446 h -24.6734 v 184.44379 h 24.6734 v -70.78435 l -12.13446,6.8762 v -49.34681 l 61.48129,-34.38097 z m 144.8048,0.40448 h -122.9625 v -283.1374 h 122.9625 z M 1128.687,662.19256 V 477.74877 h -24.6734 v 184.44379 h 24.6734 z m 116.4905,-192.93791 74.0202,-40.85268 v 283.1374 h -122.9625 v -283.1374 h 48.9423 v 40.85268 z m 24.6734,192.93791 v -147.63592 -2.4269 l -24.6734,13.75239 v 136.31043 h 24.6734 z m 193.7469,49.34681 h -122.9625 v -283.1374 h 122.9625 z M 1414.251,662.19256 V 477.74877 h -24.6734 v 184.44379 h 24.6734 z m 188.8928,-234.19507 v 49.3468 h -37.2123 v 233.7906 h -49.3468 v -233.7906 h -36.8079 v -49.3468 h 123.367 z"
       id="text27"
       style="font-size:404.482px;font-family:Schwachsinn;-inkscape-font-specification:'Schwachsinn, Normal';text-align:center;text-anchor:middle;fill:url(#linearGradient45);stroke-width:168.535;stroke-linecap:round"
       aria-label="GODOT" /><text
       xml:space="preserve"
       style="font-style:normal;font-variant:normal;font-weight:normal;font-stretch:normal;font-size:302.98px;font-family:Schwachsinn;-inkscape-font-specification:'Schwachsinn, Normal';font-variant-ligatures:normal;font-variant-caps:normal;font-variant-numeric:normal;font-variant-east-asian:normal;text-align:center;writing-mode:lr-tb;direction:ltr;text-anchor:middle;fill:url(#linearGradient6);fill-opacity:1;stroke-width:126.243;stroke-linecap:round"
       x="150.70654"
       y="-206.95772"
       id="text1"
       transform="rotate(-14.999999)"><tspan
         sodipodi:role="line"
         x="150.70654"
         y="-206.95772"
         id="tspan1"
         style="font-style:normal;font-variant:normal;font-weight:normal;font-stretch:normal;font-size:302.98px;font-family:Schwachsinn;-inkscape-font-specification:'Schwachsinn, Normal';font-variant-ligatures:normal;font-variant-caps:normal;font-variant-numeric:normal;font-variant-east-asian:normal;fill:url(#linearGradient6);fill-opacity:1;stroke-width:126.243">With</tspan></text><text
       xml:space="preserve"
       style="font-style:normal;font-variant:normal;font-weight:normal;font-stretch:normal;font-size:398.863px;font-family:Schwachsinn;-inkscape-font-specification:'Schwachsinn, Normal';font-variant-ligatures:normal;font-variant-caps:normal;font-variant-numeric:normal;font-variant-east-asian:normal;text-align:center;writing-mode:lr-tb;direction:ltr;text-anchor:middle;fill:url(#linearGradient5);fill-opacity:1;stroke-width:166.193;stroke-linecap:round"
       x="283.76486"
       y="-503.20938"
       id="text2"><tspan
         sodipodi:role="line"
         x="283.76486"
         y="-503.20938"
         id="tspan2"
         style="font-style:normal;font-variant:normal;font-weight:normal;font-stretch:normal;font-size:398.863px;font-family:Schwachsinn;-inkscape-font-specification:'Schwachsinn, Normal';font-variant-ligatures:normal;font-variant-caps:normal;font-variant-numeric:normal;font-variant-east-asian:normal;fill:url(#linearGradient5);fill-opacity:1;stroke-width:166.193">Made</tspan></text><text
       xml:space="preserve"
       style="font-style:normal;font-variant:normal;font-weight:normal;font-stretch:normal;font-size:404.482px;font-family:Schwachsinn;-inkscape-font-specification:'Schwachsinn, Normal';font-variant-ligatures:normal;font-variant-caps:normal;font-variant-numeric:normal;font-variant-east-asian:normal;text-align:center;writing-mode:lr-tb;direction:ltr;text-anchor:middle;fill:url(#linearGradient3);fill-opacity:1;stroke-width:168.535;stroke-linecap:round"
       x="647.8667"
       y="-193.85411"
       id="text3"><tspan
         sodipodi:role="line"
         x="647.8667"
         y="-193.85411"
         id="tspan3"
         style="font-style:normal;font-variant:normal;font-weight:normal;font-stretch:normal;font-size:404.482px;font-family:Schwachsinn;-inkscape-font-specification:'Schwachsinn, Normal';font-variant-ligatures:normal;font-variant-caps:normal;font-variant-numeric:normal;font-variant-east-asian:normal;fill:url(#linearGradient3);fill-opacity:1;stroke-width:168.535">GODOT</tspan></text></g></svg>
